<?xml version="1.0" encoding="UTF-8"?>
<svg width="128px" height="18px" viewBox="0 0 128 18" version="1.1" xmlns="http://www.w3.org/2000/svg" xmlns:xlink="http://www.w3.org/1999/xlink">
    <!-- Generator: Sketch 52.5 (67469) - http://www.bohemiancoding.com/sketch -->
    <title>speedcheck-logo-18</title>
    <desc>Created with Sketch.</desc>
    <defs>
        <path d="M17.1178034,12.7275079 C16.0846946,12.4910753 15.0349145,12.298657 13.9705214,12.1523207 C14.5381811,11.2424321 14.8663677,10.1664396 14.8663677,9.01345291 C14.8663677,8.81550547 14.8566945,8.61982742 14.8377969,8.42686968 L17.3686907,5.88467725 C17.7252692,6.85541332 17.92,7.90486423 17.92,9 C17.92,10.3295381 17.6329878,11.5917416 17.1178034,12.7275079 Z M0.804721413,12.7330691 C0.287949995,11.5958623 0,10.3317084 0,9 C0,4.02943725 4.01152864,0 8.96,0 C10.6898087,0 12.3051276,0.492377787 13.6746255,1.34521592 L11.4084149,3.62154353 C10.6662103,3.28282038 9.84173456,3.0941704 8.97339312,3.0941704 C5.71879313,3.0941704 3.08041854,5.74432345 3.08041854,9.01345291 C3.08041854,10.1664396 3.40860513,11.2424321 3.9762648,12.1523207 C2.9035387,12.2998027 1.84565515,12.494091 0.804721413,12.7330691 Z M16.7692416,4.58427304 L14.4752558,6.88849985 C14.0868085,5.87439511 13.4284696,4.99483394 12.5886236,4.33859543 L14.7695282,2.14795464 C15.5700503,2.83341576 16.2489668,3.65792231 16.7692416,4.58427304 Z" id="path-1"></path>
    </defs>
    <g id="speedcheck-logo-18" stroke="none" stroke-width="1" fill="none" fill-rule="evenodd">
        <g id="Logo">
            <g id="Speedcheck-Logo">
                <g id="Oval-3">
                    <mask id="mask-2" fill="white">
                        <use xlink:href="#path-1"></use>
                    </mask>
                    <use id="Combined-Shape" fill="#2E323F" xlink:href="#path-1"></use>
                </g>
                <path d="M1.47324363,13.9549065 C3.87998273,13.4322132 6.37843517,13.1569507 8.94089288,13.1569507 C11.5116673,13.1569507 14.0180203,13.4340029 16.4319731,13.9600036 C14.8283183,16.3944005 12.0779727,18 8.95428601,18 C5.82841967,18 3.07641568,16.3921591 1.47324363,13.9549065 Z" id="Combined-Shape" fill="#2E323F"></path>
                <path d="M14.845983,2.40695116 L9.27948281,8.02375 C9.09253726,8.21238479 8.78841623,8.21311016 8.60053113,8.02550142 L6.75987461,6.18755239 L4.94490855,8.015898 L8.97903565,12.0797638 L16.5064292,4.49698102 C16.0675492,3.72168956 15.507041,3.01746956 14.8459829,2.40695127 Z" id="Check-Mark" stroke="#2AAEE1" stroke-width="0.5" fill="#2AAEE1" fill-rule="nonzero"></path>
            </g>
            <path d="M25.8205864,14.7857143 C28.8209607,14.7857143 30.2711416,13.2428571 30.2711416,11.1968944 C30.2711416,7.02111801 23.8870119,8.21180124 23.8870119,6.43416149 C23.8870119,5.76335404 24.4537492,5.31055901 25.4705427,5.31055901 C26.6040175,5.31055901 27.8041672,5.69627329 28.7042795,6.53478261 L30.0211104,4.79068323 C28.9209732,3.76770186 27.4541235,3.2310559 25.6872364,3.2310559 C23.0702433,3.2310559 21.4700437,4.77391304 21.4700437,6.63540373 C21.4700437,10.8447205 27.8708422,9.4863354 27.8708422,11.4652174 C27.8708422,12.1024845 27.2374298,12.7062112 25.9372676,12.7062112 C24.403743,12.7062112 23.1869245,12.0186335 22.4034934,11.1968944 L21.12,13.0080745 C22.1534623,14.0645963 23.6869869,14.7857143 25.8205864,14.7857143 Z M34.2383032,14.584472 L31.8713412,14.584472 L31.8713412,3.39875776 L37.07199,3.39875776 C39.4889582,3.39875776 40.8057891,5.04223602 40.8057891,7.00434783 C40.8057891,8.94968944 39.4722895,10.6099379 37.07199,10.6099379 L34.2383032,10.6099379 L34.2383032,14.584472 Z M36.7552838,8.5136646 C37.6887336,8.5136646 38.388821,7.92670807 38.388821,7.00434783 C38.388821,6.06521739 37.6887336,5.49503106 36.7552838,5.49503106 L34.2383032,5.49503106 L34.2383032,8.5136646 L36.7552838,8.5136646 Z M50.140287,14.584472 L50.140287,12.4881988 L44.6396007,12.4881988 L44.6396007,9.95590062 L50.0236057,9.95590062 L50.0236057,7.85962733 L44.6396007,7.85962733 L44.6396007,5.49503106 L50.140287,5.49503106 L50.140287,3.39875776 L42.2726388,3.39875776 L42.2726388,14.584472 L50.140287,14.584472 Z M59.8581659,14.584472 L59.8581659,12.4881988 L54.3574797,12.4881988 L54.3574797,9.95590062 L59.7414847,9.95590062 L59.7414847,7.85962733 L54.3574797,7.85962733 L54.3574797,5.49503106 L59.8581659,5.49503106 L59.8581659,3.39875776 L51.9905178,3.39875776 L51.9905178,14.584472 L59.8581659,14.584472 Z M66.092277,14.584472 L61.7083968,14.584472 L61.7083968,3.39875776 L66.092277,3.39875776 C69.5760449,3.39875776 71.9930131,5.62919255 71.9930131,9 C71.9930131,12.3708075 69.5760449,14.584472 66.092277,14.584472 Z M66.092277,12.4881988 C68.2925515,12.4881988 69.5760449,10.8950311 69.5760449,9 C69.5760449,7.02111801 68.3758952,5.49503106 66.092277,5.49503106 L64.0753587,5.49503106 L64.0753587,12.4881988 L66.092277,12.4881988 Z M79.0605614,14.7857143 C81.5108671,14.7857143 82.9110418,13.4273292 83.7111416,12.0354037 L81.6775546,11.0459627 C81.2108297,11.968323 80.2107049,12.6726708 79.0605614,12.6726708 C77.0436432,12.6726708 75.5767935,11.1130435 75.5767935,9 C75.5767935,6.88695652 77.0436432,5.32732919 79.0605614,5.32732919 C80.2107049,5.32732919 81.2108297,6.0484472 81.6775546,6.95403727 L83.7111416,5.94782609 C82.9277105,4.55590062 81.5108671,3.21428571 79.0605614,3.21428571 C75.7268122,3.21428571 73.1431566,5.5621118 73.1431566,9 C73.1431566,12.4378882 75.7268122,14.7857143 79.0605614,14.7857143 Z M95.1292327,14.584472 L95.1292327,3.39875776 L92.745602,3.39875776 L92.745602,7.79254658 L87.494947,7.79254658 L87.494947,3.39875776 L85.127985,3.39875776 L85.127985,14.584472 L87.494947,14.584472 L87.494947,9.88881988 L92.745602,9.88881988 L92.745602,14.584472 L95.1292327,14.584472 Z M105.180487,14.584472 L105.180487,12.4881988 L99.6798004,12.4881988 L99.6798004,9.95590062 L105.063805,9.95590062 L105.063805,7.85962733 L99.6798004,7.85962733 L99.6798004,5.49503106 L105.180487,5.49503106 L105.180487,3.39875776 L97.3128384,3.39875776 L97.3128384,14.584472 L105.180487,14.584472 Z M112.414722,14.7857143 C114.865028,14.7857143 116.265203,13.4273292 117.065303,12.0354037 L115.031716,11.0459627 C114.564991,11.968323 113.564866,12.6726708 112.414722,12.6726708 C110.397804,12.6726708 108.930954,11.1130435 108.930954,9 C108.930954,6.88695652 110.397804,5.32732919 112.414722,5.32732919 C113.564866,5.32732919 114.564991,6.0484472 115.031716,6.95403727 L117.065303,5.94782609 C116.281871,4.55590062 114.865028,3.21428571 112.414722,3.21428571 C109.080973,3.21428571 106.497318,5.5621118 106.497318,9 C106.497318,12.4378882 109.080973,14.7857143 112.414722,14.7857143 Z M128,14.584472 L123.282745,8.64782609 L127.699963,3.39875776 L124.782932,3.39875776 L120.849108,8.39627329 L120.849108,3.39875776 L118.482146,3.39875776 L118.482146,14.584472 L120.849108,14.584472 L120.849108,11.1465839 L121.715883,10.1068323 L125.082969,14.584472 L128,14.584472 Z" id="SPEEDCHECK" fill="#1A1E24"></path>
        </g>
    </g>
</svg>